<?xml version="1.0" encoding="UTF-8"?>
<svg xmlns="http://www.w3.org/2000/svg" viewBox="30 10 940 3451.5" width="940" height="3451.5">
<style>
  text { font-family: Arial, sans-serif; }
  .note-badge { fill: #e74c3c; }
  .note-badge-text { fill: white; font-size: 12px; font-weight: bold; }
  .note-card { fill: #f8f9fa; stroke: #dee2e6; stroke-width: 1; }
  .note-card-text { fill: #333; font-size: 12px; line-height: 22px; }
  .note-card-badge { fill: #e74c3c; }
  .note-card-badge-text { fill: white; font-size: 10px; font-weight: bold; }
</style>
<text x="50" y="50" text-anchor="start" fill="#333" font-size="20" font-weight="bold" >=== SolarWire Complete Feature Demo ===</text><title>Main title for this comprehensive SolarWire feature showcase</title>
<text x="50" y="96" text-anchor="start" fill="#333" font-size="16" font-weight="bold" >=== Basic Elements ===</text><title>Section showcasing basic SolarWire elements</title>
<rect x="50" y="110" width="120" height="50" fill="lightblue" stroke="#333333" stroke-width="1"/><text x="110" y="139" text-anchor="middle" fill="blue" font-size="12" >Rectangle</text><title>Basic rectangle element with custom colors</title>
<rect x="180" y="110" width="120" height="50" rx="10" ry="10" fill="#fff0c0" stroke="#333333" stroke-width="1"/><text x="240" y="139" text-anchor="middle" fill="#333" font-size="12" >Rounded</text><title>Rounded rectangle with custom border radius</title>
<circle cx="330" cy="145" r="20" fill="#90EE90" stroke="#333333" stroke-width="1"/><text x="330" y="145" text-anchor="middle" dominant-baseline="middle" fill="#333" font-size="12" >Circle</text><title>Circle element for avatar or icon display</title>
<g transform="translate(370, 120)"><polygon points="12,2.4000000000000004 20.4,9.120000000000001 16.32,21.6 7.68,21.6 3.5999999999999996,9.120000000000001" fill="#333"/></g><title>Material Icons star icon</title>
<g transform="translate(410, 120)"><path d="M2.4000000000000004 9.600000000000001 L12 2.4000000000000004 L21.6 9.600000000000001 L21.6 21.6 L2.4000000000000004 21.6 Z" fill="#333"/></g><title>Font Awesome home icon</title>
<text x="50" y="202" text-anchor="start" fill="#333" font-size="12" >Text Element</text><title>Basic standalone text element</title>
<text x="150" y="202" text-anchor="start" fill="#333" font-size="12" font-weight="bold" >Bold Text</text><title>Text with bold styling</title>
<text x="250" y="202" text-anchor="start" fill="#333" font-size="12" font-style="italic" >Italic Text</text><title>Text with italic styling</title>
<text x="350" y="202" text-anchor="start" fill="#333" font-size="12" font-weight="bold" font-style="italic" >Both Styles</text><title>Text with both bold and italic</title>
<rect x="50" y="230" width="200" height="80" fill="#ffffff"/><text x="150" y="270" text-anchor="middle" dominant-baseline="middle" fill="#333" font-size="12">Placeholder</text><title>Placeholder element for missing content</title>
<rect x="270" y="230" width="200" height="80" fill="#ffffff"/><g transform="translate(358, 246)"><rect x="0" y="0" width="24" height="24" fill="none" stroke="#333" stroke-width="2" rx="4"/><path d="M4.800000000000001 7.199999999999999 L12 14.399999999999999 L19.200000000000003 7.199999999999999" fill="none" stroke="#333" stroke-width="2"/><circle cx="8.399999999999999" cy="9.600000000000001" r="1.92" fill="#333"/></g><text x="370" y="282" text-anchor="middle" fill="#333" font-size="12">Image</text><image x="270" y="230" width="200" height="80" href="https://example.com/hero.jpg"/><title>Image element with URL - shows placeholder when not loaded</title>
<line x1="50" y1="330" x2="950" y2="330" stroke="gray" stroke-width="1"/><title>Horizontal divider line separating sections</title>
<text x="50" y="376" text-anchor="start" fill="#333" font-size="16" font-weight="bold" >=== Relative Positioning ===</text><title>Section demonstrating relative coordinates</title>
<rect x="50" y="390" width="150" height="50" fill="#e8f4fc" stroke="#333333" stroke-width="1"/><text x="125" y="419" text-anchor="middle" fill="#333" font-size="12" >Absolute</text><title>Element with absolute coordinates</title>
<rect x="210" y="390" width="150" height="50" fill="#fff3e0" stroke="#333333" stroke-width="1"/><text x="285" y="419" text-anchor="middle" fill="#333" font-size="12" >Right of Edge</text><title>Element positioned at Right+10, Top+0 of previous</title>
<rect x="210" y="450" width="150" height="50" fill="#e8f5e9" stroke="#333333" stroke-width="1"/><text x="285" y="479" text-anchor="middle" fill="#333" font-size="12" >Below Edge</text><title>Element positioned at Left+0, Bottom+10 of previous</title>
<rect x="50" y="520" width="200" height="60" fill="#fce4ec" stroke="#333333" stroke-width="1"/><text x="150" y="554" text-anchor="middle" fill="#333" font-size="12" >Edge Reference</text><title>Element used as edge reference</title>
<rect x="260" y="520" width="150" height="60" fill="#f3e5f5" stroke="#333333" stroke-width="1"/><text x="335" y="554" text-anchor="middle" fill="#333" font-size="12" >Right of Reference</text><title>Element positioned at Right+10, Top+0 of previous</title>
<rect x="260" y="590" width="150" height="60" fill="#e0f7fa" stroke="#333333" stroke-width="1"/><text x="335" y="624" text-anchor="middle" fill="#333" font-size="12" >Bottom of Reference</text><title>Element positioned at Left+0, Bottom+10 of previous</title>
<line x1="50" y1="630" x2="950" y2="630" stroke="gray" stroke-width="1"/><title>Divider after relative positioning section</title>
<text x="50" y="676" text-anchor="start" fill="#333" font-size="16" font-weight="bold" >=== Table with colspan/rowspan ===</text><title>Section demonstrating table with colspan and rowspan</title>
<rect x="50" y="690" width="400" height="50" fill="#4CAF50" stroke="#333333" stroke-width="1"/><text x="250" y="715" text-anchor="middle" dominant-baseline="middle" fill="white" font-size="12" font-weight="bold" >Header 1</text><rect x="450" y="690" width="200" height="50" fill="#4CAF50" stroke="#333333" stroke-width="1"/><text x="550" y="715" text-anchor="middle" dominant-baseline="middle" fill="white" font-size="12" font-weight="bold" >Header 2</text><rect x="50" y="740" width="200" height="100" fill="#e8f5e9" stroke="#333333" stroke-width="1"/><text x="150" y="790" text-anchor="middle" dominant-baseline="middle" fill="#333" font-size="12" >Merged</text><rect x="250" y="740" width="200" height="50" fill="#f5f5f5" stroke="#333333" stroke-width="1"/><text x="350" y="765" text-anchor="middle" dominant-baseline="middle" fill="#333" font-size="12" >Cell A1</text><rect x="450" y="740" width="200" height="50" fill="#f5f5f5" stroke="#333333" stroke-width="1"/><text x="550" y="765" text-anchor="middle" dominant-baseline="middle" fill="#333" font-size="12" >Cell A2</text><rect x="250" y="790" width="200" height="50" fill="#ffffff" stroke="#333333" stroke-width="1"/><text x="350" y="815" text-anchor="middle" dominant-baseline="middle" fill="#333" font-size="12" >Cell B1</text><rect x="450" y="790" width="200" height="50" fill="#ffffff" stroke="#333333" stroke-width="1"/><text x="550" y="815" text-anchor="middle" dominant-baseline="middle" fill="#333" font-size="12" >Cell B2</text><rect x="50" y="840" width="600" height="50" fill="#2196F3" stroke="#333333" stroke-width="1"/><text x="350" y="865" text-anchor="middle" dominant-baseline="middle" fill="white" font-size="12" font-weight="bold" >Footer</text><rect x="50" y="690" width="600" height="200" fill="none" stroke="#333333" stroke-width="1"/><title>Complete table demonstrating colspan and rowspan features</title>
<rect x="50" y="890" width="480" height="50" fill="#9C27B0" stroke="#333333" stroke-width="1"/><text x="290" y="915" text-anchor="middle" dominant-baseline="middle" fill="white" font-size="12" font-weight="bold" >Title</text><rect x="50" y="940" width="120" height="150" fill="#FFC107" stroke="#333333" stroke-width="1"/><text x="110" y="1015" text-anchor="middle" dominant-baseline="middle" fill="#333" font-size="12" >Menu</text><rect x="170" y="940" width="120" height="50" fill="#FFF3E0" stroke="#333333" stroke-width="1"/><text x="230" y="965" text-anchor="middle" dominant-baseline="middle" fill="#333" font-size="12" >Item 1</text><rect x="290" y="940" width="120" height="50" fill="#FFF3E0" stroke="#333333" stroke-width="1"/><text x="350" y="965" text-anchor="middle" dominant-baseline="middle" fill="#333" font-size="12" >Item 2</text><rect x="410" y="940" width="240" height="50" fill="#FFE0B2" stroke="#333333" stroke-width="1"/><text x="530" y="965" text-anchor="middle" dominant-baseline="middle" fill="#333" font-size="12" >Item 3</text><rect x="170" y="990" width="120" height="50" fill="#E3F2FD" stroke="#333333" stroke-width="1"/><text x="230" y="1015" text-anchor="middle" dominant-baseline="middle" fill="#333" font-size="12" >Detail A</text><rect x="290" y="990" width="120" height="50" fill="#E3F2FD" stroke="#333333" stroke-width="1"/><text x="350" y="1015" text-anchor="middle" dominant-baseline="middle" fill="#333" font-size="12" >Detail B</text><rect x="170" y="1040" width="360" height="50" fill="#4CAF50" stroke="#333333" stroke-width="1"/><text x="350" y="1065" text-anchor="middle" dominant-baseline="middle" fill="white" font-size="12" font-weight="bold" >Summary</text><rect x="50" y="890" width="600" height="200" fill="none" stroke="#333333" stroke-width="1"/><title>Advanced table with multiple colspan and rowspan combinations</title>
<line x1="50" y1="1120" x2="950" y2="1120" stroke="gray" stroke-width="1"/><title>Another divider line</title>
<text x="50" y="1166" text-anchor="start" fill="#333" font-size="16" font-weight="bold" >=== Containers and Layout ===</text><title>Section demonstrating row and column containers</title>
<rect x="50" y="1180" width="900" height="100" fill="#ffffff" stroke="none" stroke-width="0"/><rect x="60" y="1190" width="150" height="80" fill="#ffcccb" stroke="#333333" stroke-width="1"/><text x="135" y="1234" text-anchor="middle" fill="#333" font-size="12" >Left</text><title>First element in row container - notice gap from left</title><rect x="220" y="1190" width="150" height="80" fill="#ffffcc" stroke="#333333" stroke-width="1"/><text x="295" y="1234" text-anchor="middle" fill="#333" font-size="12" >Center</text><title>Second element in row container</title><rect x="380" y="1190" width="150" height="80" fill="#ccffcc" stroke="#333333" stroke-width="1"/><text x="455" y="1234" text-anchor="middle" fill="#333" font-size="12" >Right</text><title>Third element in row container</title><title>Row container arranging elements horizontally with gap</title>
<rect x="50" y="1300" width="300" height="150" fill="#ffffff" stroke="none" stroke-width="0"/><rect x="60" y="1310" width="280" height="40" fill="#e8f4fc" stroke="#333333" stroke-width="1"/><text x="200" y="1334" text-anchor="middle" fill="#333" font-size="12" >Top</text><title>Top element in column container - notice gap from top</title><rect x="60" y="1360" width="280" height="40" fill="#fce4ec" stroke="#333333" stroke-width="1"/><text x="200" y="1384" text-anchor="middle" fill="#333" font-size="12" >Middle</text><title>Middle element in column container</title><rect x="60" y="1410" width="280" height="40" fill="#f3e5f5" stroke="#333333" stroke-width="1"/><text x="200" y="1434" text-anchor="middle" fill="#333" font-size="12" >Bottom</text><title>Bottom element in column container</title><title>Column container arranging elements vertically with gap</title>
<rect x="370" y="1300" width="580" height="150" fill="#ffffff" stroke="none" stroke-width="0"/><rect x="380" y="1310" width="185" height="120" fill="#ffffff" stroke="none" stroke-width="0"/><rect x="385" y="1315" width="180" height="35" fill="#fff3e0" stroke="#333333" stroke-width="1"/><text x="475" y="1336.5" text-anchor="middle" fill="#333" font-size="12" >Nested 1</text><title>First nested column</title><rect x="385" y="1355" width="180" height="35" fill="#e0f7fa" stroke="#333333" stroke-width="1"/><text x="475" y="1376.5" text-anchor="middle" fill="#333" font-size="12" >Nested 2</text><title>Second nested column</title><rect x="385" y="1395" width="180" height="35" fill="#f1f8e9" stroke="#333333" stroke-width="1"/><text x="475" y="1416.5" text-anchor="middle" fill="#333" font-size="12" >Nested 3</text><title>Third nested column</title><rect x="575" y="1310" width="185" height="120" fill="#ffffff" stroke="none" stroke-width="0"/><rect x="580" y="1315" width="180" height="35" fill="#ffebee" stroke="#333333" stroke-width="1"/><text x="670" y="1336.5" text-anchor="middle" fill="#333" font-size="12" >Nested A</text><title>Fourth nested column</title><rect x="580" y="1355" width="180" height="35" fill="#f3e5f5" stroke="#333333" stroke-width="1"/><text x="670" y="1376.5" text-anchor="middle" fill="#333" font-size="12" >Nested B</text><title>Fifth nested column</title><rect x="580" y="1395" width="180" height="35" fill="#e8eaf6" stroke="#333333" stroke-width="1"/><text x="670" y="1416.5" text-anchor="middle" fill="#333" font-size="12" >Nested C</text><title>Sixth nested column</title><title>Nested containers - row containing columns</title>
<line x1="50" y1="1470" x2="950" y2="1470" stroke="gray" stroke-width="1"/><title>Final divider line</title>
<text x="50" y="1516" text-anchor="start" fill="#333" font-size="16" font-weight="bold" >=== Complex Note Examples ===</text><title>Section demonstrating complex note content with multiple notes</title>
<rect x="50" y="1530" width="250" height="60" fill="#ffffff" stroke="#333333" stroke-width="1"/><text x="175" y="1564" text-anchor="middle" fill="#333" font-size="12" >Multi-line Note</text><title>This is a multi-line note.
It contains several lines of text
to demonstrate how notes with
longer content are displayed
in the card area at the bottom.</title>
<rect x="320" y="1530" width="250" height="60" fill="#ffffff" stroke="#333333" stroke-width="1"/><text x="445" y="1564" text-anchor="middle" fill="#333" font-size="12" >List Note</text><title>- First list item
- Second list item with more details
- Third list item with even more information
- Fourth item to complete the list</title>
<rect x="590" y="1530" width="250" height="60" fill="#ffffff" stroke="#333333" stroke-width="1"/><text x="715" y="1564" text-anchor="middle" fill="#333" font-size="12" >Numbered Note</text><title>1. First numbered item
2. Second numbered item
3. Third numbered item with description
4. Fourth numbered item</title>
<rect x="50" y="1610" width="380" height="60" fill="#ffffff" stroke="#333333" stroke-width="1"/><text x="240" y="1644" text-anchor="middle" fill="#333" font-size="12" >Mixed Note</text><title>Important Features:
• Easy to learn syntax
• Powerful layout capabilities
• Flexible styling options
Key Benefits:
- Quick prototyping
- Clean visual output
- Export to SVG/PNG</title>
<rect x="450" y="1610" width="380" height="60" fill="#ffffff" stroke="#333333" stroke-width="1"/><text x="640" y="1644" text-anchor="middle" fill="#333" font-size="12" >Detailed Note</text><title>This element demonstrates
a very detailed note that
contains multiple paragraphs
and various types of content
to show the flexibility of
the note system in SolarWire.</title>
<text x="50" y="1714" text-anchor="start" fill="#333" font-size="14" >End of Demo - Check below for all notes!</text><title>Thank you for exploring SolarWire! Scroll down to see all note cards with their corresponding badges.</title>
  <circle cx="510" cy="22" r="10" class="note-badge"/>
  <text x="510" y="26" text-anchor="middle" class="note-badge-text">1</text>
  <circle cx="253.2" cy="72" r="10" class="note-badge"/>
  <text x="253.2" y="76" text-anchor="middle" class="note-badge-text">2</text>
  <circle cx="162" cy="102" r="10" class="note-badge"/>
  <text x="162" y="106" text-anchor="middle" class="note-badge-text">3</text>
  <circle cx="292" cy="102" r="10" class="note-badge"/>
  <text x="292" y="106" text-anchor="middle" class="note-badge-text">4</text>
  <circle cx="342" cy="117" r="10" class="note-badge"/>
  <text x="342" y="121" text-anchor="middle" class="note-badge-text">5</text>
  <circle cx="386" cy="112" r="10" class="note-badge"/>
  <text x="386" y="116" text-anchor="middle" class="note-badge-text">6</text>
  <circle cx="426" cy="112" r="10" class="note-badge"/>
  <text x="426" y="116" text-anchor="middle" class="note-badge-text">7</text>
  <circle cx="128.39999999999998" cy="182" r="10" class="note-badge"/>
  <text x="128.39999999999998" y="186" text-anchor="middle" class="note-badge-text">8</text>
  <circle cx="206.8" cy="182" r="10" class="note-badge"/>
  <text x="206.8" y="186" text-anchor="middle" class="note-badge-text">9</text>
  <circle cx="321.2" cy="182" r="10" class="note-badge"/>
  <text x="321.2" y="186" text-anchor="middle" class="note-badge-text">10</text>
  <circle cx="421.2" cy="182" r="10" class="note-badge"/>
  <text x="421.2" y="186" text-anchor="middle" class="note-badge-text">11</text>
  <circle cx="242" cy="222" r="10" class="note-badge"/>
  <text x="242" y="226" text-anchor="middle" class="note-badge-text">12</text>
  <circle cx="462" cy="222" r="10" class="note-badge"/>
  <text x="462" y="226" text-anchor="middle" class="note-badge-text">13</text>
  <circle cx="942" cy="322" r="10" class="note-badge"/>
  <text x="942" y="326" text-anchor="middle" class="note-badge-text">14</text>
  <circle cx="310.8" cy="352" r="10" class="note-badge"/>
  <text x="310.8" y="356" text-anchor="middle" class="note-badge-text">15</text>
  <circle cx="192" cy="382" r="10" class="note-badge"/>
  <text x="192" y="386" text-anchor="middle" class="note-badge-text">16</text>
  <circle cx="352" cy="382" r="10" class="note-badge"/>
  <text x="352" y="386" text-anchor="middle" class="note-badge-text">17</text>
  <circle cx="352" cy="442" r="10" class="note-badge"/>
  <text x="352" y="446" text-anchor="middle" class="note-badge-text">18</text>
  <circle cx="242" cy="512" r="10" class="note-badge"/>
  <text x="242" y="516" text-anchor="middle" class="note-badge-text">19</text>
  <circle cx="402" cy="512" r="10" class="note-badge"/>
  <text x="402" y="516" text-anchor="middle" class="note-badge-text">20</text>
  <circle cx="402" cy="582" r="10" class="note-badge"/>
  <text x="402" y="586" text-anchor="middle" class="note-badge-text">21</text>
  <circle cx="942" cy="622" r="10" class="note-badge"/>
  <text x="942" y="626" text-anchor="middle" class="note-badge-text">22</text>
  <circle cx="368.4" cy="652" r="10" class="note-badge"/>
  <text x="368.4" y="656" text-anchor="middle" class="note-badge-text">23</text>
  <circle cx="642" cy="682" r="10" class="note-badge"/>
  <text x="642" y="686" text-anchor="middle" class="note-badge-text">24</text>
  <circle cx="642" cy="882" r="10" class="note-badge"/>
  <text x="642" y="886" text-anchor="middle" class="note-badge-text">25</text>
  <circle cx="942" cy="1112" r="10" class="note-badge"/>
  <text x="942" y="1116" text-anchor="middle" class="note-badge-text">26</text>
  <circle cx="320.4" cy="1142" r="10" class="note-badge"/>
  <text x="320.4" y="1146" text-anchor="middle" class="note-badge-text">27</text>
  <circle cx="942" cy="1172" r="10" class="note-badge"/>
  <text x="942" y="1176" text-anchor="middle" class="note-badge-text">28</text>
  <circle cx="342" cy="1292" r="10" class="note-badge"/>
  <text x="342" y="1296" text-anchor="middle" class="note-badge-text">29</text>
  <circle cx="942" cy="1292" r="10" class="note-badge"/>
  <text x="942" y="1296" text-anchor="middle" class="note-badge-text">30</text>
  <circle cx="942" cy="1462" r="10" class="note-badge"/>
  <text x="942" y="1466" text-anchor="middle" class="note-badge-text">31</text>
  <circle cx="320.4" cy="1492" r="10" class="note-badge"/>
  <text x="320.4" y="1496" text-anchor="middle" class="note-badge-text">32</text>
  <circle cx="292" cy="1522" r="10" class="note-badge"/>
  <text x="292" y="1526" text-anchor="middle" class="note-badge-text">33</text>
  <circle cx="562" cy="1522" r="10" class="note-badge"/>
  <text x="562" y="1526" text-anchor="middle" class="note-badge-text">34</text>
  <circle cx="832" cy="1522" r="10" class="note-badge"/>
  <text x="832" y="1526" text-anchor="middle" class="note-badge-text">35</text>
  <circle cx="422" cy="1602" r="10" class="note-badge"/>
  <text x="422" y="1606" text-anchor="middle" class="note-badge-text">36</text>
  <circle cx="822" cy="1602" r="10" class="note-badge"/>
  <text x="822" y="1606" text-anchor="middle" class="note-badge-text">37</text>
  <circle cx="378" cy="1692" r="10" class="note-badge"/>
  <text x="378" y="1696" text-anchor="middle" class="note-badge-text">38</text>
  <rect x="50" y="1751.5" width="445" height="68" rx="8" class="note-card"/>
  <circle cx="62" cy="1763.5" r="8" class="note-card-badge"/>
  <text x="62" y="1766.5" text-anchor="middle" class="note-card-badge-text">1</text>
  <text x="78" y="1763.5" fill="#333" font-size="12" dominant-baseline="hanging">
    <tspan x="78">Main title for this comprehensive SolarWire feature</tspan>
    <tspan x="78" dy="22">showcase</tspan>
  </text>
  <rect x="505" y="1751.5" width="445" height="60" rx="8" class="note-card"/>
  <circle cx="517" cy="1763.5" r="8" class="note-card-badge"/>
  <text x="517" y="1766.5" text-anchor="middle" class="note-card-badge-text">2</text>
  <text x="533" y="1763.5" fill="#333" font-size="12" dominant-baseline="hanging">
    <tspan x="533">Section showcasing basic SolarWire elements</tspan>
  </text>
  <rect x="50" y="1829.5" width="445" height="60" rx="8" class="note-card"/>
  <circle cx="62" cy="1841.5" r="8" class="note-card-badge"/>
  <text x="62" y="1844.5" text-anchor="middle" class="note-card-badge-text">3</text>
  <text x="78" y="1841.5" fill="#333" font-size="12" dominant-baseline="hanging">
    <tspan x="78">Basic rectangle element with custom colors</tspan>
  </text>
  <rect x="505" y="1829.5" width="445" height="60" rx="8" class="note-card"/>
  <circle cx="517" cy="1841.5" r="8" class="note-card-badge"/>
  <text x="517" y="1844.5" text-anchor="middle" class="note-card-badge-text">4</text>
  <text x="533" y="1841.5" fill="#333" font-size="12" dominant-baseline="hanging">
    <tspan x="533">Rounded rectangle with custom border radius</tspan>
  </text>
  <rect x="50" y="1899.5" width="445" height="60" rx="8" class="note-card"/>
  <circle cx="62" cy="1911.5" r="8" class="note-card-badge"/>
  <text x="62" y="1914.5" text-anchor="middle" class="note-card-badge-text">5</text>
  <text x="78" y="1911.5" fill="#333" font-size="12" dominant-baseline="hanging">
    <tspan x="78">Circle element for avatar or icon display</tspan>
  </text>
  <rect x="505" y="1899.5" width="445" height="60" rx="8" class="note-card"/>
  <circle cx="517" cy="1911.5" r="8" class="note-card-badge"/>
  <text x="517" y="1914.5" text-anchor="middle" class="note-card-badge-text">6</text>
  <text x="533" y="1911.5" fill="#333" font-size="12" dominant-baseline="hanging">
    <tspan x="533">Material Icons star icon</tspan>
  </text>
  <rect x="50" y="1969.5" width="445" height="60" rx="8" class="note-card"/>
  <circle cx="62" cy="1981.5" r="8" class="note-card-badge"/>
  <text x="62" y="1984.5" text-anchor="middle" class="note-card-badge-text">7</text>
  <text x="78" y="1981.5" fill="#333" font-size="12" dominant-baseline="hanging">
    <tspan x="78">Font Awesome home icon</tspan>
  </text>
  <rect x="505" y="1969.5" width="445" height="60" rx="8" class="note-card"/>
  <circle cx="517" cy="1981.5" r="8" class="note-card-badge"/>
  <text x="517" y="1984.5" text-anchor="middle" class="note-card-badge-text">8</text>
  <text x="533" y="1981.5" fill="#333" font-size="12" dominant-baseline="hanging">
    <tspan x="533">Basic standalone text element</tspan>
  </text>
  <rect x="50" y="2039.5" width="445" height="60" rx="8" class="note-card"/>
  <circle cx="62" cy="2051.5" r="8" class="note-card-badge"/>
  <text x="62" y="2054.5" text-anchor="middle" class="note-card-badge-text">9</text>
  <text x="78" y="2051.5" fill="#333" font-size="12" dominant-baseline="hanging">
    <tspan x="78">Text with bold styling</tspan>
  </text>
  <rect x="505" y="2039.5" width="445" height="60" rx="8" class="note-card"/>
  <circle cx="517" cy="2051.5" r="8" class="note-card-badge"/>
  <text x="517" y="2054.5" text-anchor="middle" class="note-card-badge-text">10</text>
  <text x="533" y="2051.5" fill="#333" font-size="12" dominant-baseline="hanging">
    <tspan x="533">Text with italic styling</tspan>
  </text>
  <rect x="50" y="2109.5" width="445" height="60" rx="8" class="note-card"/>
  <circle cx="62" cy="2121.5" r="8" class="note-card-badge"/>
  <text x="62" y="2124.5" text-anchor="middle" class="note-card-badge-text">11</text>
  <text x="78" y="2121.5" fill="#333" font-size="12" dominant-baseline="hanging">
    <tspan x="78">Text with both bold and italic</tspan>
  </text>
  <rect x="505" y="2109.5" width="445" height="60" rx="8" class="note-card"/>
  <circle cx="517" cy="2121.5" r="8" class="note-card-badge"/>
  <text x="517" y="2124.5" text-anchor="middle" class="note-card-badge-text">12</text>
  <text x="533" y="2121.5" fill="#333" font-size="12" dominant-baseline="hanging">
    <tspan x="533">Placeholder element for missing content</tspan>
  </text>
  <rect x="50" y="2179.5" width="445" height="68" rx="8" class="note-card"/>
  <circle cx="62" cy="2191.5" r="8" class="note-card-badge"/>
  <text x="62" y="2194.5" text-anchor="middle" class="note-card-badge-text">13</text>
  <text x="78" y="2191.5" fill="#333" font-size="12" dominant-baseline="hanging">
    <tspan x="78">Image element with URL - shows placeholder when not</tspan>
    <tspan x="78" dy="22">loaded</tspan>
  </text>
  <rect x="505" y="2179.5" width="445" height="60" rx="8" class="note-card"/>
  <circle cx="517" cy="2191.5" r="8" class="note-card-badge"/>
  <text x="517" y="2194.5" text-anchor="middle" class="note-card-badge-text">14</text>
  <text x="533" y="2191.5" fill="#333" font-size="12" dominant-baseline="hanging">
    <tspan x="533">Horizontal divider line separating sections</tspan>
  </text>
  <rect x="50" y="2257.5" width="445" height="60" rx="8" class="note-card"/>
  <circle cx="62" cy="2269.5" r="8" class="note-card-badge"/>
  <text x="62" y="2272.5" text-anchor="middle" class="note-card-badge-text">15</text>
  <text x="78" y="2269.5" fill="#333" font-size="12" dominant-baseline="hanging">
    <tspan x="78">Section demonstrating relative coordinates</tspan>
  </text>
  <rect x="505" y="2257.5" width="445" height="60" rx="8" class="note-card"/>
  <circle cx="517" cy="2269.5" r="8" class="note-card-badge"/>
  <text x="517" y="2272.5" text-anchor="middle" class="note-card-badge-text">16</text>
  <text x="533" y="2269.5" fill="#333" font-size="12" dominant-baseline="hanging">
    <tspan x="533">Element with absolute coordinates</tspan>
  </text>
  <rect x="50" y="2327.5" width="445" height="60" rx="8" class="note-card"/>
  <circle cx="62" cy="2339.5" r="8" class="note-card-badge"/>
  <text x="62" y="2342.5" text-anchor="middle" class="note-card-badge-text">17</text>
  <text x="78" y="2339.5" fill="#333" font-size="12" dominant-baseline="hanging">
    <tspan x="78">Element positioned at Right+10, Top+0 of previous</tspan>
  </text>
  <rect x="505" y="2327.5" width="445" height="60" rx="8" class="note-card"/>
  <circle cx="517" cy="2339.5" r="8" class="note-card-badge"/>
  <text x="517" y="2342.5" text-anchor="middle" class="note-card-badge-text">18</text>
  <text x="533" y="2339.5" fill="#333" font-size="12" dominant-baseline="hanging">
    <tspan x="533">Element positioned at Left+0, Bottom+10 of previous</tspan>
  </text>
  <rect x="50" y="2397.5" width="445" height="60" rx="8" class="note-card"/>
  <circle cx="62" cy="2409.5" r="8" class="note-card-badge"/>
  <text x="62" y="2412.5" text-anchor="middle" class="note-card-badge-text">19</text>
  <text x="78" y="2409.5" fill="#333" font-size="12" dominant-baseline="hanging">
    <tspan x="78">Element used as edge reference</tspan>
  </text>
  <rect x="505" y="2397.5" width="445" height="60" rx="8" class="note-card"/>
  <circle cx="517" cy="2409.5" r="8" class="note-card-badge"/>
  <text x="517" y="2412.5" text-anchor="middle" class="note-card-badge-text">20</text>
  <text x="533" y="2409.5" fill="#333" font-size="12" dominant-baseline="hanging">
    <tspan x="533">Element positioned at Right+10, Top+0 of previous</tspan>
  </text>
  <rect x="50" y="2467.5" width="445" height="60" rx="8" class="note-card"/>
  <circle cx="62" cy="2479.5" r="8" class="note-card-badge"/>
  <text x="62" y="2482.5" text-anchor="middle" class="note-card-badge-text">21</text>
  <text x="78" y="2479.5" fill="#333" font-size="12" dominant-baseline="hanging">
    <tspan x="78">Element positioned at Left+0, Bottom+10 of previous</tspan>
  </text>
  <rect x="505" y="2467.5" width="445" height="60" rx="8" class="note-card"/>
  <circle cx="517" cy="2479.5" r="8" class="note-card-badge"/>
  <text x="517" y="2482.5" text-anchor="middle" class="note-card-badge-text">22</text>
  <text x="533" y="2479.5" fill="#333" font-size="12" dominant-baseline="hanging">
    <tspan x="533">Divider after relative positioning section</tspan>
  </text>
  <rect x="50" y="2537.5" width="445" height="60" rx="8" class="note-card"/>
  <circle cx="62" cy="2549.5" r="8" class="note-card-badge"/>
  <text x="62" y="2552.5" text-anchor="middle" class="note-card-badge-text">23</text>
  <text x="78" y="2549.5" fill="#333" font-size="12" dominant-baseline="hanging">
    <tspan x="78">Section demonstrating table with colspan and rowspan</tspan>
  </text>
  <rect x="505" y="2537.5" width="445" height="68" rx="8" class="note-card"/>
  <circle cx="517" cy="2549.5" r="8" class="note-card-badge"/>
  <text x="517" y="2552.5" text-anchor="middle" class="note-card-badge-text">24</text>
  <text x="533" y="2549.5" fill="#333" font-size="12" dominant-baseline="hanging">
    <tspan x="533">Complete table demonstrating colspan and rowspan</tspan>
    <tspan x="533" dy="22">features</tspan>
  </text>
  <rect x="50" y="2615.5" width="445" height="68" rx="8" class="note-card"/>
  <circle cx="62" cy="2627.5" r="8" class="note-card-badge"/>
  <text x="62" y="2630.5" text-anchor="middle" class="note-card-badge-text">25</text>
  <text x="78" y="2627.5" fill="#333" font-size="12" dominant-baseline="hanging">
    <tspan x="78">Advanced table with multiple colspan and rowspan</tspan>
    <tspan x="78" dy="22">combinations</tspan>
  </text>
  <rect x="505" y="2615.5" width="445" height="60" rx="8" class="note-card"/>
  <circle cx="517" cy="2627.5" r="8" class="note-card-badge"/>
  <text x="517" y="2630.5" text-anchor="middle" class="note-card-badge-text">26</text>
  <text x="533" y="2627.5" fill="#333" font-size="12" dominant-baseline="hanging">
    <tspan x="533">Another divider line</tspan>
  </text>
  <rect x="50" y="2693.5" width="445" height="60" rx="8" class="note-card"/>
  <circle cx="62" cy="2705.5" r="8" class="note-card-badge"/>
  <text x="62" y="2708.5" text-anchor="middle" class="note-card-badge-text">27</text>
  <text x="78" y="2705.5" fill="#333" font-size="12" dominant-baseline="hanging">
    <tspan x="78">Section demonstrating row and column containers</tspan>
  </text>
  <rect x="505" y="2693.5" width="445" height="60" rx="8" class="note-card"/>
  <circle cx="517" cy="2705.5" r="8" class="note-card-badge"/>
  <text x="517" y="2708.5" text-anchor="middle" class="note-card-badge-text">28</text>
  <text x="533" y="2705.5" fill="#333" font-size="12" dominant-baseline="hanging">
    <tspan x="533">Row container arranging elements horizontally with gap</tspan>
  </text>
  <rect x="50" y="2763.5" width="445" height="60" rx="8" class="note-card"/>
  <circle cx="62" cy="2775.5" r="8" class="note-card-badge"/>
  <text x="62" y="2778.5" text-anchor="middle" class="note-card-badge-text">29</text>
  <text x="78" y="2775.5" fill="#333" font-size="12" dominant-baseline="hanging">
    <tspan x="78">Column container arranging elements vertically with gap</tspan>
  </text>
  <rect x="505" y="2763.5" width="445" height="60" rx="8" class="note-card"/>
  <circle cx="517" cy="2775.5" r="8" class="note-card-badge"/>
  <text x="517" y="2778.5" text-anchor="middle" class="note-card-badge-text">30</text>
  <text x="533" y="2775.5" fill="#333" font-size="12" dominant-baseline="hanging">
    <tspan x="533">Nested containers - row containing columns</tspan>
  </text>
  <rect x="50" y="2833.5" width="445" height="60" rx="8" class="note-card"/>
  <circle cx="62" cy="2845.5" r="8" class="note-card-badge"/>
  <text x="62" y="2848.5" text-anchor="middle" class="note-card-badge-text">31</text>
  <text x="78" y="2845.5" fill="#333" font-size="12" dominant-baseline="hanging">
    <tspan x="78">Final divider line</tspan>
  </text>
  <rect x="505" y="2833.5" width="445" height="68" rx="8" class="note-card"/>
  <circle cx="517" cy="2845.5" r="8" class="note-card-badge"/>
  <text x="517" y="2848.5" text-anchor="middle" class="note-card-badge-text">32</text>
  <text x="533" y="2845.5" fill="#333" font-size="12" dominant-baseline="hanging">
    <tspan x="533">Section demonstrating complex note content with multiple</tspan>
    <tspan x="533" dy="22">notes</tspan>
  </text>
  <rect x="50" y="2911.5" width="445" height="134" rx="8" class="note-card"/>
  <circle cx="62" cy="2923.5" r="8" class="note-card-badge"/>
  <text x="62" y="2926.5" text-anchor="middle" class="note-card-badge-text">33</text>
  <text x="78" y="2923.5" fill="#333" font-size="12" dominant-baseline="hanging">
    <tspan x="78">This is a multi-line note.</tspan>
    <tspan x="78" dy="22">It contains several lines of text</tspan>
    <tspan x="78" dy="22">to demonstrate how notes with</tspan>
    <tspan x="78" dy="22">longer content are displayed</tspan>
    <tspan x="78" dy="22">in the card area at the bottom.</tspan>
  </text>
  <rect x="505" y="2911.5" width="445" height="112" rx="8" class="note-card"/>
  <circle cx="517" cy="2923.5" r="8" class="note-card-badge"/>
  <text x="517" y="2926.5" text-anchor="middle" class="note-card-badge-text">34</text>
  <text x="533" y="2923.5" fill="#333" font-size="12" dominant-baseline="hanging">
    <tspan x="533">- First list item</tspan>
    <tspan x="533" dy="22">- Second list item with more details</tspan>
    <tspan x="533" dy="22">- Third list item with even more information</tspan>
    <tspan x="533" dy="22">- Fourth item to complete the list</tspan>
  </text>
  <rect x="50" y="3055.5" width="445" height="112" rx="8" class="note-card"/>
  <circle cx="62" cy="3067.5" r="8" class="note-card-badge"/>
  <text x="62" y="3070.5" text-anchor="middle" class="note-card-badge-text">35</text>
  <text x="78" y="3067.5" fill="#333" font-size="12" dominant-baseline="hanging">
    <tspan x="78">1. First numbered item</tspan>
    <tspan x="78" dy="22">2. Second numbered item</tspan>
    <tspan x="78" dy="22">3. Third numbered item with description</tspan>
    <tspan x="78" dy="22">4. Fourth numbered item</tspan>
  </text>
  <rect x="505" y="3055.5" width="445" height="200" rx="8" class="note-card"/>
  <circle cx="517" cy="3067.5" r="8" class="note-card-badge"/>
  <text x="517" y="3070.5" text-anchor="middle" class="note-card-badge-text">36</text>
  <text x="533" y="3067.5" fill="#333" font-size="12" dominant-baseline="hanging">
    <tspan x="533">Important Features:</tspan>
    <tspan x="533" dy="22">• Easy to learn syntax</tspan>
    <tspan x="533" dy="22">• Powerful layout capabilities</tspan>
    <tspan x="533" dy="22">• Flexible styling options</tspan>
    <tspan x="533" dy="22">Key Benefits:</tspan>
    <tspan x="533" dy="22">- Quick prototyping</tspan>
    <tspan x="533" dy="22">- Clean visual output</tspan>
    <tspan x="533" dy="22">- Export to SVG/PNG</tspan>
  </text>
  <rect x="50" y="3265.5" width="445" height="156" rx="8" class="note-card"/>
  <circle cx="62" cy="3277.5" r="8" class="note-card-badge"/>
  <text x="62" y="3280.5" text-anchor="middle" class="note-card-badge-text">37</text>
  <text x="78" y="3277.5" fill="#333" font-size="12" dominant-baseline="hanging">
    <tspan x="78">This element demonstrates</tspan>
    <tspan x="78" dy="22">a very detailed note that</tspan>
    <tspan x="78" dy="22">contains multiple paragraphs</tspan>
    <tspan x="78" dy="22">and various types of content</tspan>
    <tspan x="78" dy="22">to show the flexibility of</tspan>
    <tspan x="78" dy="22">the note system in SolarWire.</tspan>
  </text>
  <rect x="505" y="3265.5" width="445" height="68" rx="8" class="note-card"/>
  <circle cx="517" cy="3277.5" r="8" class="note-card-badge"/>
  <text x="517" y="3280.5" text-anchor="middle" class="note-card-badge-text">38</text>
  <text x="533" y="3277.5" fill="#333" font-size="12" dominant-baseline="hanging">
    <tspan x="533">Thank you for exploring SolarWire! Scroll down to see</tspan>
    <tspan x="533" dy="22">all note cards with their corresponding badges.</tspan>
  </text>
</svg>