<?xml version="1.0" encoding="UTF-8"?>
<svg xmlns="http://www.w3.org/2000/svg" viewBox="30 30 1140 740" width="1140" height="740">
<style>
  text { font-family: Arial, sans-serif; }
</style>
<rect x="50" y="50" width="1100" height="700" fill="#ffffff" stroke="none" stroke-width="0"/><rect x="50" y="50" width="550" height="700" fill="#f8fafc" stroke="none" stroke-width="0"/><rect x="50" y="50" width="550" height="100" fill="#ffffff" stroke="none" stroke-width="0"/><rect x="100" y="120" width="50" height="50" fill="#4f46e5" stroke="#333333" stroke-width="1"/><text x="170" y="167" text-anchor="start" fill="#1a1a2e" font-size="22" font-weight="bold" >AdminPro</text><rect x="50" y="150" width="550" height="500" fill="#f8fafc" stroke="none" stroke-width="0"/><rect x="125" y="330" width="400" height="300" fill="#e0e7ff"/><text x="325" y="480" text-anchor="middle" dominant-baseline="middle" fill="#333" font-size="12">Placeholder</text><text x="125" y="664" text-anchor="start" fill="#4f46e5" font-size="14" font-weight="bold" >Streamline your workflow</text><rect x="50" y="650" width="550" height="100" fill="#ffffff" stroke="none" stroke-width="0"/><text x="100" y="1261" text-anchor="start" fill="#6b7280" font-size="11" >Trusted by 5,000+ teams</text><rect x="200" y="1275" width="80" height="40" fill="#f1f5f9" stroke="#333333" stroke-width="1"/><rect x="300" y="1275" width="80" height="40" fill="#f1f5f9" stroke="#333333" stroke-width="1"/><rect x="400" y="1275" width="80" height="40" fill="#f1f5f9" stroke="#333333" stroke-width="1"/><rect x="500" y="1275" width="80" height="40" fill="#f1f5f9" stroke="#333333" stroke-width="1"/><rect x="600" y="50" width="550" height="700" fill="#ffffff" stroke="none" stroke-width="0"/><rect x="600" y="50" width="550" height="100" fill="#ffffff" stroke="none" stroke-width="0"/><rect x="1100" y="120" width="40" height="40" fill="#f1f5f9" stroke="#333333" stroke-width="1"/><rect x="600" y="150" width="550" height="550" fill="#ffffff" stroke="none" stroke-width="0"/><text x="650" y="308" text-anchor="start" fill="#1a1a2e" font-size="28" font-weight="bold" >Welcome back</text><text x="650" y="334" text-anchor="start" fill="#6b7280" font-size="14" >Sign in to your account</text><text x="650" y="383" text-anchor="start" fill="#374151" font-size="13" font-weight="bold" >Email</text><rect x="650" y="395" width="450" height="50" fill="#f9fafb" stroke="#e5e7eb" stroke-width="1"/><text x="670" y="439" text-anchor="start" fill="#9ca3af" font-size="14" >name@company.com</text><text x="650" y="493" text-anchor="start" fill="#374151" font-size="13" font-weight="bold" >Password</text><rect x="650" y="505" width="400" height="50" fill="#f9fafb" stroke="#e5e7eb" stroke-width="1"/><text x="670" y="551" text-anchor="start" fill="#1f2937" font-size="16" >••••••••</text><rect x="1060" y="505" width="40" height="50" fill="#f3f4f6" stroke="#333333" stroke-width="1"/><rect x="650" y="580" width="18" height="18" fill="#ffffff" stroke="#d1d5db" stroke-width="1"/><text x="680" y="606" text-anchor="start" fill="#374151" font-size="13" >Remember me</text><text x="960" y="606" text-anchor="start" fill="#4f46e5" font-size="13" font-weight="bold" >Forgot password?</text><rect x="650" y="630" width="450" height="55" fill="#4f46e5" stroke="#333333" stroke-width="1"/><text x="875" y="661.5" text-anchor="middle" fill="#ffffff" font-size="12" font-weight="bold" >Sign In</text><line x1="650" y1="715" x2="840" y2="715" stroke="#e5e7eb" stroke-width="1"/><text x="860" y="721" text-anchor="start" fill="#6b7280" font-size="13" >or</text><line x1="880" y1="715" x2="1100" y2="715" stroke="#e5e7eb" stroke-width="1"/><rect x="650" y="750" width="215" height="50" fill="#ffffff" stroke="#e5e7eb" stroke-width="1"/><rect x="670" y="758" width="35" height="35" fill="#4285f4" stroke="#333333" stroke-width="1"/><text x="720" y="786" text-anchor="start" fill="#374151" font-size="13" font-weight="bold" >Continue with Google</text><rect x="885" y="750" width="215" height="50" fill="#ffffff" stroke="#e5e7eb" stroke-width="1"/><rect x="905" y="758" width="35" height="35" fill="#1f2937" stroke="#333333" stroke-width="1"/><text x="955" y="786" text-anchor="start" fill="#374151" font-size="13" font-weight="bold" >Continue with GitHub</text><rect x="600" y="700" width="550" height="50" fill="#f9fafb" stroke="none" stroke-width="0"/><text x="750" y="1428" text-anchor="start" fill="#6b7280" font-size="13" >Don't have an account? </text><text x="930" y="1428" text-anchor="start" fill="#4f46e5" font-size="13" font-weight="bold" >Create an account</text>
</svg>